<?xml version="1.0" encoding="UTF-8"?><svg id="Layer_1" xmlns="http://www.w3.org/2000/svg" viewBox="0 0 81.8 105.16"><defs><style>.cls-1{fill:#fff;}</style></defs><path class="cls-1" d="M40.21,3.79C28.54-2.83,12.87-.63,3.53,9.18,1.45,11.33-.47,15.54.1,18.59c2.68,15.64,7.77,20.15,23.64,21.32.82,0,1.55.2,2.37.19,3.59.36,6.58-.35,8.55-1.96s3.16-4.38,3.38-7.91c.17-2.03-.37-3.78-1.31-4.88-1.07-1.04-2.6-1.58-4.86-1.49-1.44.09-2.74.12-4.18.2-4.46.32-8.92.63-13.24.08-2.03-.17-4.55-2.76-5.74-4.91-.45-1.13.22-4.35,1.38-5.14,3.89-2.55,9.03-5.27,15.13-3.13,13.93,4.89,38.01,17.8,43,27.77.51,1.27,1.19,2.14,2.01,2.96,4.16,4.23,4.39,7.25.98,11.41-21.34,26-38.61,33.21-38.61,33.21-8.54,4-12.01,4.01-13.92,3.84-4.4-.38-6.64-2.21-10.19-1.04-3.29,1.09-6.54,4.36-6.41,7.48.22,5.01,9.15,9.41,16.33,8.45,6.11-.82,8.52-6.87,13.5-9.44,25.71-13.24,36.81-24.54,46.43-38.64,2.02-2.97,3.91-6.74,3.38-10.99-.26-2.08-1.04-4.1-2.33-5.98-2.8-4.12-6.03-8.07-9.19-11.88L40.21,3.79Z"/></svg>