<?xml version="1.0" encoding="UTF-8"?>
<svg id="Layer_1" xmlns="http://www.w3.org/2000/svg" version="1.1" viewBox="0 0 225.7 118">
  <!-- Generator: Adobe Illustrator 29.4.0, SVG Export Plug-In . SVG Version: 2.1.0 Build 152)  -->
  <defs>
    <style>
      .st0 {
        fill: #d8d8d8;
      }

      .st1 {
        fill: #373535;
      }
    </style>
  </defs>
  <g id="Layer_11" data-name="Layer_1">
    <path class="st0" d="M117.85,74.4c0,3.62-2.05,5.67-5.67,5.67s-5.66-2.05-5.66-5.67,2.05-5.76,5.66-5.76,5.67,2.15,5.67,5.76M117.85,40c0,3.62-2.05,5.67-5.67,5.67s-5.66-2.05-5.66-5.67,2.05-5.76,5.66-5.76,5.67,2.15,5.67,5.76"/>
  </g>
  <g id="korean">
    <path class="st1" d="M35.89,31.16c1.27,0,2.57-.02,3.9-.07,1.32-.05,2.61-.12,3.85-.22,1.24-.1,2.42-.23,3.53-.39s2.11-.34,2.99-.54l.54,3.24c-2.19.46-4.71.8-7.55,1.03s-6.31.34-10.39.34h-2.5V5.51h17.84v3.29h-13.87v9.02h13.34v3.18h-13.34v10.15h1.67-.01ZM63.06,45.96v-23.97h-6.08v21.62h-3.82V1.45h3.82v17.26h6.08V.37h3.87v45.6h-3.87Z"/>
    <path class="st1" d="M150.32,85.42v-3.24h25.94v3.24h-25.94ZM174.35,95.57c0,1.17-.28,2.25-.83,3.24-.56.98-1.32,1.81-2.28,2.5s-2.11,1.22-3.43,1.6c-1.32.38-2.75.56-4.29.56s-2.97-.19-4.29-.56c-1.32-.38-2.47-.91-3.43-1.6-.97-.69-1.73-1.52-2.28-2.5-.56-.98-.83-2.06-.83-3.24s.28-2.31.83-3.29,1.31-1.81,2.28-2.5c.96-.69,2.11-1.21,3.43-1.57,1.32-.36,2.75-.54,4.29-.54s2.97.18,4.29.54c1.32.36,2.47.89,3.43,1.57s1.72,1.52,2.28,2.5c.55.98.83,2.08.83,3.29ZM170.47,95.57c0-.72-.18-1.38-.54-1.96-.36-.59-.86-1.09-1.5-1.5s-1.37-.72-2.21-.93-1.74-.32-2.72-.32-1.89.11-2.72.32-1.57.52-2.21.93-1.14.91-1.49,1.5c-.36.59-.54,1.24-.54,1.96s.18,1.36.54,1.94c.36.57.86,1.06,1.49,1.47.64.41,1.37.72,2.21.93.83.21,1.74.32,2.72.32s1.89-.11,2.72-.32,1.57-.52,2.21-.93,1.14-.9,1.5-1.47.54-1.22.54-1.94ZM156.8,78.66v-3.53h13.14v3.53h-13.14ZM157.78,117.63v-12.01h3.97v8.73h26.62v3.28s-30.59,0-30.59,0ZM175.82,86.9h7.6v-13.34h3.97v34.22h-3.97v-8.58h-7.6v-3.24h7.6v-5.83h-7.6v-3.24h0Z"/>
  </g>
</svg>